<?xml version="1.0" standalone="no"?>
<!DOCTYPE svg PUBLIC "-//W3C//DTD SVG 20010904//EN"
 "http://www.w3.org/TR/2001/REC-SVG-20010904/DTD/svg10.dtd">
<svg version="1.0" xmlns="http://www.w3.org/2000/svg"
 width="512.000000pt" height="512.000000pt" viewBox="0 0 512.000000 512.000000"
 preserveAspectRatio="xMidYMid meet">

<g transform="translate(0.000000,512.000000) scale(0.100000,-0.100000)"
fill="#000000" stroke="none">
<path d="M2043 4959 c-478 -32 -939 -244 -1288 -594 -989 -988 -715 -2634 543
-3264 179 -89 366 -149 587 -188 139 -23 480 -24 620 0 203 35 425 106 580
185 l60 30 440 -437 c477 -474 482 -478 635 -520 89 -25 216 -27 308 -6 210
50 385 223 438 435 23 91 15 253 -16 335 -44 118 -96 177 -533 614 l-425 423
46 97 c128 275 197 597 190 898 l-3 143 287 287 c158 159 292 301 297 316 6
16 11 39 11 53 0 39 -38 103 -73 124 -36 22 -106 26 -140 9 -12 -6 -117 -106
-234 -222 -117 -116 -214 -209 -216 -207 -1 3 -20 56 -40 119 -93 284 -278
574 -508 797 -425 410 -976 611 -1566 573z m492 -329 c683 -147 1189 -644
1345 -1323 l23 -99 -151 -151 -152 -152 -267 267 c-228 226 -274 267 -305 273
-79 15 -86 9 -518 -421 l-405 -404 -180 181 c-99 99 -192 187 -207 195 -34 18
-80 18 -121 0 -18 -8 -175 -158 -354 -337 -273 -275 -323 -330 -332 -365 -30
-115 83 -216 196 -174 15 6 146 129 290 273 l263 262 172 -177 c189 -193 233
-224 301 -215 38 5 70 35 446 411 223 223 411 406 416 406 6 0 123 -113 260
-251 138 -138 262 -257 277 -265 32 -17 101 -18 131 -3 12 6 73 61 136 123
l113 111 -6 -73 c-34 -399 -279 -855 -605 -1126 -523 -436 -1252 -524 -1866
-226 -491 238 -828 672 -947 1220 -20 93 -22 133 -22 340 0 207 2 247 22 340
157 724 715 1257 1439 1375 135 22 476 14 608 -15z m1686 -3327 c452 -453 445
-445 443 -573 -2 -107 -67 -209 -168 -263 -59 -31 -193 -31 -256 0 -31 16
-169 146 -448 426 l-403 403 108 90 c61 51 152 141 208 207 55 64 102 117 105
117 3 0 188 -183 411 -407z"/>
</g>
</svg>
